[Header]                  # Header keywords are followed by a single value
FileType htr              # single word string
DataType HTRS             # Hierarchical translations followed by rotations and Scale
FileVersion 1             # integer
NumSegments   22        # integer
NumFrames   7          # integer
DataFrameRate    60      # integer
EulerRotationOrder ZYX    # one word string
CalibrationUnits mm   # one word string
RotationUnits Degrees     # one word string
GlobalAxisofGravity Y        # character, X or Y or Z
BoneLengthAxis Y
ScaleFactor 1.0000
[SegmentNames&Hierarchy]
#CHILD         PARENT
LowerTorso	GLOBAL
MidTorso1	LowerTorso
MidTorso2	MidTorso1
UpperTorso	MidTorso2
Neck	UpperTorso
Head	Neck
LCollar	UpperTorso
LUpArm	LCollar
LLowArm	LUpArm
LHand	LLowArm
RCollar	UpperTorso
RUpArm	RCollar
RLowArm	RUpArm
RHand	RLowArm
RThigh	LowerTorso
RLowLeg	RThigh
RFoot	RLowLeg
RToe	RFoot
LThigh	LowerTorso
LLowLeg	LThigh
LFoot	LLowLeg
LToe	LFoot
[BasePosition]
#SegmentName Tx, Ty, Tz, Rx, Ry, Rz, BoneLength
LowerTorso	245.858011	950.547112	300.901792	3.160114	-0.119681	0.216534	50.177140	
MidTorso1	0.000000	50.177140	0.000000	12.744977	0.544086	-1.233692	50.243103	
MidTorso2	0.000000	50.243103	0.000000	-8.561622	-5.666755	-0.324056	70.108070	
UpperTorso	0.000000	70.108070	0.000000	-7.840640	5.423498	1.565454	211.798493	
Neck	0.000000	211.798493	0.000000	3.763396	2.354772	0.143986	247.477358	
Head	0.000000	247.477358	0.000000	87.188098	-1.617490	-0.909978	97.755902	
LCollar	5.963899	207.774288	0.020038	-0.085181	3.120430	-88.053499	154.341182	
LUpArm	0.000000	154.341182	0.000000	17.609330	2.601210	1.098979	257.694232	
LLowArm	0.000000	257.694232	0.000000	-4.295116	-4.411555	-0.381267	245.288314	
LHand	0.000000	245.288314	0.000000	-1.254656	0.451892	-3.187610	143.943585	
RCollar	-6.407295	207.548200	-0.033576	-3.957489	-2.573361	89.782717	159.716168	
RUpArm	0.000000	159.716168	0.000000	10.569861	0.025507	1.593474	259.181013	
RLowArm	0.000000	259.181013	0.000000	2.433186	-0.094719	0.439860	254.783021	
RHand	0.000000	254.783021	0.000000	-2.521327	-1.940663	10.821380	138.724995	
RThigh	-104.582724	-43.868855	71.110148	1.186921	1.056410	177.271085	484.665755	
RLowLeg	0.000000	484.665755	0.000000	-9.413113	-2.560999	2.584420	338.943480	
RFoot	0.000000	338.943480	0.000000	38.119802	-1.210697	-2.462270	108.422675	
RToe	0.000000	108.422675	0.000000	62.205972	5.729825	0.107186	135.948299	
LThigh	104.514322	-44.027056	71.110540	1.887019	-3.794944	-176.973714	484.665500	
LLowLeg	0.000000	484.665500	0.000000	-9.413064	2.561022	-2.584327	338.944952	
LFoot	0.000000	338.944952	0.000000	38.119895	1.210631	2.462181	108.422417	
LToe	0.000000	108.422417	0.000000	62.206117	-5.729564	-0.107296	135.948400	
#Beginning of Data. Separated by tabs
[LowerTorso]
#Fr     Tx      Ty      Tz      Rx      Ry      Rz      SF
263	648.698608	54.423405	500.994049	0.432527	-33.405941	3.317349	1.000000	
264	661.762695	41.464520	503.431366	0.644133	-35.226295	5.447755	1.000000	
265	675.095947	26.117144	505.671234	1.016863	-37.122406	7.565560	1.000000	
266	689.272705	8.365327	507.723480	1.446780	-39.275043	9.565670	1.000000	
267	704.344971	-13.245060	509.282288	1.592386	-41.111195	10.121487	1.000000	
268	722.487427	-34.392307	510.625793	1.995714	-44.163342	11.972321	1.000000	
269	742.100525	-56.363472	511.937744	1.650160	-47.268055	13.885118	1.000000	
[MidTorso1]
#Fr     Tx      Ty      Tz      Rx      Ry      Rz      SF
263	0.000000	0.000000	0.000000	0.456295	1.173722	-2.109396	1.000000	
264	0.000000	0.000000	0.000000	0.274346	1.445312	-2.174560	1.000000	
265	0.000000	0.000000	0.000000	0.115863	1.731230	-2.210923	1.000000	
266	0.000000	0.000000	0.000000	0.065960	2.072294	-2.164409	1.000000	
267	0.000000	0.000000	0.000000	0.625083	2.478268	-1.596488	1.000000	
268	0.000000	0.000000	0.000000	0.946518	2.955804	-1.406466	1.000000	
269	0.000000	0.000000	0.000000	1.668720	3.285492	-1.167037	1.000000	
[MidTorso2]
#Fr     Tx      Ty      Tz      Rx      Ry      Rz      SF
263	0.000000	0.000000	0.000000	0.235066	1.479102	-1.949436	1.000000	
264	0.000000	0.000000	0.000000	0.047160	1.753486	-1.956586	1.000000	
265	0.000000	0.000000	0.000000	-0.114141	2.038411	-1.935519	1.000000	
266	0.000000	0.000000	0.000000	-0.158856	2.368103	-1.835063	1.000000	
267	0.000000	0.000000	0.000000	0.453622	2.698617	-1.268438	1.000000	
268	0.000000	0.000000	0.000000	0.791491	3.150070	-1.041414	1.000000	
269	0.000000	0.000000	0.000000	1.530592	3.457155	-0.825579	1.000000	
[UpperTorso]
#Fr     Tx      Ty      Tz      Rx      Ry      Rz      SF
263	0.000000	0.000000	0.000000	0.458245	1.721747	-1.690407	1.000000	
264	0.000000	0.000000	0.000000	0.280150	2.001819	-1.675061	1.000000	
265	0.000000	0.000000	0.000000	0.126440	2.287288	-1.628064	1.000000	
266	0.000000	0.000000	0.000000	0.083547	2.601364	-1.486183	1.000000	
267	0.000000	0.000000	0.000000	0.654913	2.825526	-0.827645	1.000000	
268	0.000000	0.000000	0.000000	0.987753	3.227184	-0.510280	1.000000	
269	0.000000	0.000000	0.000000	1.718355	3.470486	-0.189006	1.000000	
[Neck]
#Fr     Tx      Ty      Tz      Rx      Ry      Rz      SF
263	0.000000	0.000000	0.000000	-15.211020	-5.466217	-2.525529	1.000000	
264	0.000000	0.000000	0.000000	-16.483667	-4.998979	-3.712561	1.000000	
265	0.000000	0.000000	0.000000	-18.213337	-4.660752	-5.030952	1.000000	
266	0.000000	0.000000	0.000000	-20.452915	-4.380466	-6.540804	1.000000	
267	0.000000	0.000000	0.000000	-23.191929	-4.432556	-8.070723	1.000000	
268	0.000000	0.000000	0.000000	-26.602369	-4.299285	-9.815764	1.000000	
269	0.000000	0.000000	0.000000	-30.425982	-4.055420	-11.341841	1.000000	
[Head]
#Fr     Tx      Ty      Tz      Rx      Ry      Rz      SF
263	0.000000	0.000000	0.000000	-0.037890	2.215780	-0.204727	1.000000	
264	0.000000	0.000000	0.000000	0.435273	2.147924	-0.208931	1.000000	
265	0.000000	0.000000	0.000000	1.032889	2.059784	-0.219894	1.000000	
266	0.000000	0.000000	0.000000	1.630444	1.969130	-0.224907	1.000000	
267	0.000000	0.000000	0.000000	1.494678	1.562813	-0.272144	1.000000	
268	0.000000	0.000000	0.000000	2.257807	1.575358	-0.287394	1.000000	
269	0.000000	0.000000	0.000000	3.235243	1.513948	-0.323208	1.000000	
[LCollar]
#Fr     Tx      Ty      Tz      Rx      Ry      Rz      SF
263	0.000000	0.000000	0.000000	5.892206	1.237029	-11.814859	1.000000	
264	0.000000	0.000000	0.000000	5.852804	1.240147	-11.921802	1.000000	
265	0.000000	0.000000	0.000000	5.819047	1.247278	-12.056359	1.000000	
266	0.000000	0.000000	0.000000	5.782669	1.259093	-12.241912	1.000000	
267	0.000000	0.000000	0.000000	4.645493	1.179658	-14.217103	1.000000	
268	0.000000	0.000000	0.000000	4.735586	1.248079	-14.731193	1.000000	
269	0.000000	0.000000	0.000000	5.080862	1.379758	-15.153163	1.000000	
[LUpArm]
#Fr     Tx      Ty      Tz      Rx      Ry      Rz      SF
263	0.000000	0.000000	0.000000	-6.472852	29.039320	-47.392857	1.000000	
264	0.000000	0.000000	0.000000	-7.072632	29.140057	-47.752682	1.000000	
265	0.000000	0.000000	0.000000	-7.690308	29.125860	-48.138176	1.000000	
266	0.000000	0.000000	0.000000	-8.248278	28.869743	-48.571198	1.000000	
267	0.000000	0.000000	0.000000	-7.266597	28.970495	-46.303421	1.000000	
268	0.000000	0.000000	0.000000	-7.627260	27.705509	-46.813805	1.000000	
269	0.000000	0.000000	0.000000	-7.906882	25.616968	-47.624454	1.000000	
[LLowArm]
#Fr     Tx      Ty      Tz      Rx      Ry      Rz      SF
263	0.000000	0.000000	0.000000	96.569374	-0.012441	-0.013953	1.000000	
264	0.000000	0.000000	0.000000	96.351654	-0.012446	-0.013906	1.000000	
265	0.000000	0.000000	0.000000	96.224190	-0.012449	-0.013878	1.000000	
266	0.000000	0.000000	0.000000	96.142731	-0.012451	-0.013861	1.000000	
267	0.000000	0.000000	0.000000	96.694435	-0.012438	-0.013980	1.000000	
268	0.000000	0.000000	0.000000	96.572647	-0.012441	-0.013954	1.000000	
269	0.000000	0.000000	0.000000	96.246635	-0.012449	-0.013883	1.000000	
[LHand]
#Fr     Tx      Ty      Tz      Rx      Ry      Rz      SF
263	0.000000	0.000000	0.000000	15.483147	3.094116	-3.503745	1.000000	
264	0.000000	0.000000	0.000000	15.799900	3.127074	-3.620937	1.000000	
265	0.000000	0.000000	0.000000	16.167454	3.296962	-3.684051	1.000000	
266	0.000000	0.000000	0.000000	16.638021	3.333559	-3.761759	1.000000	
267	0.000000	0.000000	0.000000	16.375050	3.580873	-4.109186	1.000000	
268	0.000000	0.000000	0.000000	17.070107	3.545460	-4.229174	1.000000	
269	0.000000	0.000000	0.000000	17.816292	3.634038	-4.346476	1.000000	
[RCollar]
#Fr     Tx      Ty      Tz      Rx      Ry      Rz      SF
263	0.000000	0.000000	0.000000	5.537377	-1.553491	15.622794	1.000000	
264	0.000000	0.000000	0.000000	5.188437	-1.501413	16.095371	1.000000	
265	0.000000	0.000000	0.000000	4.862178	-1.443711	16.498104	1.000000	
266	0.000000	0.000000	0.000000	4.715751	-1.424976	16.775690	1.000000	
267	0.000000	0.000000	0.000000	5.964813	-1.489274	13.968392	1.000000	
268	0.000000	0.000000	0.000000	6.229182	-1.573234	14.118592	1.000000	
269	0.000000	0.000000	0.000000	6.932309	-1.795370	14.449382	1.000000	
[RUpArm]
#Fr     Tx      Ty      Tz      Rx      Ry      Rz      SF
263	0.000000	0.000000	0.000000	-4.085757	-24.839500	44.423691	1.000000	
264	0.000000	0.000000	0.000000	-2.108366	-25.088060	43.138313	1.000000	
265	0.000000	0.000000	0.000000	-0.304121	-24.806215	42.148777	1.000000	
266	0.000000	0.000000	0.000000	1.362680	-24.001135	41.297081	1.000000	
267	0.000000	0.000000	0.000000	2.278144	-21.734062	43.755795	1.000000	
268	0.000000	0.000000	0.000000	4.363050	-20.510704	42.202126	1.000000	
269	0.000000	0.000000	0.000000	6.836253	-19.263298	39.864117	1.000000	
[RLowArm]
#Fr     Tx      Ty      Tz      Rx      Ry      Rz      SF
263	0.000000	0.000000	0.000000	71.419792	0.000011	0.000035	1.000000	
264	0.000000	0.000000	0.000000	69.942490	0.000011	0.000034	1.000000	
265	0.000000	0.000000	0.000000	68.745827	0.000011	0.000033	1.000000	
266	0.000000	0.000000	0.000000	67.941521	0.000011	0.000033	1.000000	
267	0.000000	0.000000	0.000000	67.025032	0.000012	0.000032	1.000000	
268	0.000000	0.000000	0.000000	66.977798	0.000012	0.000032	1.000000	
269	0.000000	0.000000	0.000000	67.187729	0.000012	0.000032	1.000000	
[RHand]
#Fr     Tx      Ty      Tz      Rx      Ry      Rz      SF
263	0.000000	0.000000	0.000000	8.417794	-8.056182	-7.180284	1.000000	
264	0.000000	0.000000	0.000000	8.429369	-7.564044	-6.631008	1.000000	
265	0.000000	0.000000	0.000000	8.484892	-7.186234	-5.953505	1.000000	
266	0.000000	0.000000	0.000000	8.583146	-6.891037	-5.237301	1.000000	
267	0.000000	0.000000	0.000000	9.148069	-6.660542	-6.089686	1.000000	
268	0.000000	0.000000	0.000000	9.365132	-6.023933	-5.942660	1.000000	
269	0.000000	0.000000	0.000000	9.769912	-5.023124	-6.285557	1.000000	
[RThigh]
#Fr     Tx      Ty      Tz      Rx      Ry      Rz      SF
263	0.000000	0.000000	0.000000	17.466589	5.028409	3.439482	1.000000	
264	0.000000	0.000000	0.000000	18.766836	6.678071	2.824986	1.000000	
265	0.000000	0.000000	0.000000	20.708538	7.731509	2.326969	1.000000	
266	0.000000	0.000000	0.000000	23.414146	7.547116	1.809324	1.000000	
267	0.000000	0.000000	0.000000	25.282051	5.637345	1.849873	1.000000	
268	0.000000	0.000000	0.000000	30.231718	2.517195	0.570286	1.000000	
269	0.000000	0.000000	0.000000	35.354507	-0.845566	-1.209794	1.000000	
[RLowLeg]
#Fr     Tx      Ty      Tz      Rx      Ry      Rz      SF
263	0.000000	0.000000	0.000000	-28.232265	0.000000	-0.000010	1.000000	
264	0.000000	0.000000	0.000000	-28.613562	0.000000	-0.000010	1.000000	
265	0.000000	0.000000	0.000000	-29.680513	0.000000	-0.000011	1.000000	
266	0.000000	0.000000	0.000000	-31.954556	-0.000001	-0.000012	1.000000	
267	0.000000	0.000000	0.000000	-33.855370	-0.000001	-0.000012	1.000000	
268	0.000000	0.000000	0.000000	-39.599953	-0.000002	-0.000014	1.000000	
269	0.000000	0.000000	0.000000	-46.135468	-0.000003	-0.000016	1.000000	
[RFoot]
#Fr     Tx      Ty      Tz      Rx      Ry      Rz      SF
263	0.000000	0.000000	0.000000	-6.227890	1.009670	9.172609	1.000000	
264	0.000000	0.000000	0.000000	-5.693994	0.874003	8.697936	1.000000	
265	0.000000	0.000000	0.000000	-2.791965	0.320257	6.538490	1.000000	
266	0.000000	0.000000	0.000000	2.911282	-0.141022	2.770872	1.000000	
267	0.000000	0.000000	0.000000	5.432941	0.283953	-2.982849	1.000000	
268	0.000000	0.000000	0.000000	12.117338	1.345071	-6.239556	1.000000	
269	0.000000	0.000000	0.000000	16.527357	2.343389	-7.845661	1.000000	
[RToe]
#Fr     Tx      Ty      Tz      Rx      Ry      Rz      SF
263	0.000000	0.000000	0.000000	-0.472254	-0.000001	0.000000	1.000000	
264	0.000000	0.000000	0.000000	0.221156	0.000000	0.000000	1.000000	
265	0.000000	0.000000	0.000000	1.020574	0.000002	0.000000	1.000000	
266	0.000000	0.000000	0.000000	1.095592	0.000002	0.000000	1.000000	
267	0.000000	0.000000	0.000000	6.599002	0.000012	0.000003	1.000000	
268	0.000000	0.000000	0.000000	5.371374	0.000010	0.000003	1.000000	
269	0.000000	0.000000	0.000000	5.316600	0.000010	0.000003	1.000000	
[LThigh]
#Fr     Tx      Ty      Tz      Rx      Ry      Rz      SF
263	0.000000	0.000000	0.000000	14.776670	-10.408147	1.269807	1.000000	
264	0.000000	0.000000	0.000000	14.629667	-8.703074	2.235162	1.000000	
265	0.000000	0.000000	0.000000	14.486938	-6.704291	3.171134	1.000000	
266	0.000000	0.000000	0.000000	14.272960	-4.423736	4.184252	1.000000	
267	0.000000	0.000000	0.000000	13.645505	-4.580598	6.505055	1.000000	
268	0.000000	0.000000	0.000000	13.808102	-2.719861	7.123405	1.000000	
269	0.000000	0.000000	0.000000	14.006728	-1.277360	7.219995	1.000000	
[LLowLeg]
#Fr     Tx      Ty      Tz      Rx      Ry      Rz      SF
263	0.000000	0.000000	0.000000	-35.845810	0.000059	-0.000035	1.000000	
264	0.000000	0.000000	0.000000	-33.388981	0.000056	-0.000032	1.000000	
265	0.000000	0.000000	0.000000	-30.464836	0.000052	-0.000028	1.000000	
266	0.000000	0.000000	0.000000	-27.605988	0.000047	-0.000024	1.000000	
267	0.000000	0.000000	0.000000	-27.186586	0.000047	-0.000024	1.000000	
268	0.000000	0.000000	0.000000	-26.643604	0.000046	-0.000023	1.000000	
269	0.000000	0.000000	0.000000	-28.156343	0.000048	-0.000025	1.000000	
[LFoot]
#Fr     Tx      Ty      Tz      Rx      Ry      Rz      SF
263	0.000000	0.000000	0.000000	3.046954	-0.193681	3.633801	1.000000	
264	0.000000	0.000000	0.000000	2.578656	-0.175299	3.886539	1.000000	
265	0.000000	0.000000	0.000000	1.455404	-0.091150	3.583169	1.000000	
266	0.000000	0.000000	0.000000	0.381437	-0.015085	2.265391	1.000000	
267	0.000000	0.000000	0.000000	3.386068	0.281438	-4.746014	1.000000	
268	0.000000	0.000000	0.000000	6.066189	0.919373	-8.586128	1.000000	
269	0.000000	0.000000	0.000000	11.322906	2.371228	-11.674718	1.000000	
[LToe]
#Fr     Tx      Ty      Tz      Rx      Ry      Rz      SF
263	0.000000	0.000000	0.000000	-22.716604	-0.000064	0.000005	1.000000	
264	0.000000	0.000000	0.000000	-21.752817	-0.000062	0.000005	1.000000	
265	0.000000	0.000000	0.000000	-20.096642	-0.000057	0.000004	1.000000	
266	0.000000	0.000000	0.000000	-17.214634	-0.000049	0.000002	1.000000	
267	0.000000	0.000000	0.000000	-12.281639	-0.000035	0.000000	1.000000	
268	0.000000	0.000000	0.000000	-8.020821	-0.000023	-0.000001	1.000000	
269	0.000000	0.000000	0.000000	-4.671647	-0.000013	-0.000001	1.000000	
[EndOfFile]
